<?xml version="1.0" standalone="no"?><!DOCTYPE svg PUBLIC "-//W3C//DTD SVG 1.1//EN" "http://www.w3.org/Graphics/SVG/1.1/DTD/svg11.dtd"><svg t="1665062228515" class="icon" viewBox="0 0 1024 1024" version="1.1" xmlns="http://www.w3.org/2000/svg" p-id="998" xmlns:xlink="http://www.w3.org/1999/xlink" width="200" height="200"><path d="M892.8 773l-1.2-1.4c-59.4-71.2-167-76-232.6-10.6l-22 22 119.4 119.4c55.2-30.8 101.8-74.8 135.4-128.2 0.2-0.4 0.6-0.8 1-1.2zM701.2 927.4l-228-228c-85.8-85.8-225-85.8-310.8 0L116 745.8c50 96.8 140.2 168.8 249 194.2 96.6 22.6 197.2 22.6 293.6 0 14.8-3.4 28.8-7.6 42.6-12.6zM654 303.8c-36.6 0-66.2 29.6-66.2 66.2s29.6 66.2 66.2 66.2 66.2-29.6 66.2-66.2-29.6-66.2-66.2-66.2z" fill="#7D4EFD" p-id="999"></path><path d="M940 365.2A377.34 377.34 0 0 0 658.8 84c-96.6-22.6-197.2-22.6-293.6 0A377.34 377.34 0 0 0 84 365.2c-22.6 96.6-22.6 197.2 0 293.6 2.4 10.2 5.2 20.4 8.4 30.2l29.8-29.8c108-108 283-108 391 0l83.6 83.6 22-22c84-84 218.8-83 301.6-1.8 8.2-19.2 14.6-39.4 19.6-60.4 22.6-96.4 22.6-196.8 0-293.4z m-286 127.8c-68 0-123-55-123-123s55-123 123-123 123 55.2 123 123c0 68-55 123-123 123z" fill="#7D4EFD" p-id="1000"></path></svg>