<?xml version="1.0" standalone="no"?><!DOCTYPE svg PUBLIC "-//W3C//DTD SVG 1.1//EN" "http://www.w3.org/Graphics/SVG/1.1/DTD/svg11.dtd"><svg t="1664765796191" class="icon" viewBox="0 0 1024 1024" version="1.1" xmlns="http://www.w3.org/2000/svg" p-id="2652" xmlns:xlink="http://www.w3.org/1999/xlink" width="48" height="48"><path d="M376.3 296.6c29.1-49.5 39.8-99 39.8-99l84.2 34-24.5 48s6.1 6.2 27.5 3.1 162.2-74.3 258.6-57.2c97.7 17.3 157.6 94.4 157.6 154.7v289.3s-10.7 88.2-85.7 119.1c-75 30.9-189.7 7.7-189.7 7.7l6.1-48s68.9 15.5 111.7 1.5c42.8-13.9 55.1-48 55.1-48v-345s-6.1-35.6-45.9-60.3c-39.8-24.8-59.7-21.7-102.5-15.5-42.8 6.2-108.6 37.1-108.6 37.1l-36.7 72.7h247.9v49.5H619.6v61.9h157.6v43.3l-154.5 6.2v117.6l73.5-32.5-6.1-51.1 59.7-12.4 44.4 117.6-73.5 34-9.2-41.8s-138.9 59.2-194.6 63.8c-55.7 4.6-110.4-8.8-137-46.9-26.5-38.1-20.3-114.4-20.3-114.4l99 2.5s-7.7 43.5 11.8 71S534 680 534 680V548.8l-153-4.6v-41.8h154.5l-1.5-61.9-47.4-9.3s-39.8 61.9-65.8 60.3c-26-1.5-29.1-37.1-29.1-37.1l84.2-105.2-45.9-4.6-68.9 82-52-46.4c-0.1-0.1 38.2-34.1 67.2-83.6z m-175.9 64.9l-52 74.3s111.7 55.7 120.9 100.6c9.2 44.9-153 179.5-153 179.5l115.7 85s119.8-212 110.7-281.6-142.3-157.8-142.3-157.8z m62.3-31.5c37.8 0 68.4-31 68.4-69.1 0-38.2-30.6-69.1-68.4-69.1-37.8 0-68.4 31-68.4 69.1 0 38.2 30.6 69.1 68.4 69.1z" fill="#FC8848" p-id="2653"></path></svg>